<svg xmlns="http://www.w3.org/2000/svg" version="1.1" xmlns:xlink="http://www.w3.org/1999/xlink" xmlns:svgjs="http://svgjs.dev/svgjs" viewBox="0 0 800 800"><defs><linearGradient x1="50%" y1="0%" x2="50%" y2="100%" id="ffflurry-grad" gradientTransform="rotate(270)"><stop stop-color="#430d4b" stop-opacity="1" offset="0%"></stop><stop stop-color="#c874b2" stop-opacity="1" offset="45%"></stop><stop stop-color="#f5d5e0" stop-opacity="1" offset="100%"></stop></linearGradient></defs><rect width="100%" height="100%" fill="#430d4b"></rect><g fill="url(#ffflurry-grad)"><rect width="987" height="9" x="156.5" y="366.5" rx="4.5" transform="rotate(43, 650, 371)" opacity="0.33"></rect><rect width="1178" height="9" x="77" y="124.5" rx="4.5" transform="rotate(43, 666, 129)" opacity="0.70"></rect><rect width="718" height="9" x="-62" y="620.5" rx="4.5" transform="rotate(43, 297, 625)" opacity="0.37"></rect><rect width="83" height="9" x="696.5" y="645.5" rx="4.5" transform="rotate(43, 738, 650)" opacity="0.20"></rect><rect width="966" height="9" x="-58" y="431.5" rx="4.5" transform="rotate(43, 425, 436)" opacity="0.71"></rect><rect width="882" height="9" x="-310" y="290.5" rx="4.5" transform="rotate(43, 131, 295)" opacity="0.29"></rect><rect width="210" height="9" x="500" y="655.5" rx="4.5" transform="rotate(43, 605, 660)" opacity="0.35"></rect><rect width="262" height="9" x="69" y="741.5" rx="4.5" transform="rotate(43, 200, 746)" opacity="0.19"></rect><rect width="545" height="9" x="187.5" y="674.5" rx="4.5" transform="rotate(43, 460, 679)" opacity="0.92"></rect><rect width="760" height="9" x="-52" y="119.5" rx="4.5" transform="rotate(43, 328, 124)" opacity="0.13"></rect><rect width="699" height="9" x="-265.5" y="608.5" rx="4.5" transform="rotate(43, 84, 613)" opacity="0.74"></rect></g></svg>